<svg xmlns="http://www.w3.org/2000/svg" width="26.64" height="26.64" viewBox="0 0 26.64 26.64">
  <g id="facebook" transform="translate(0 0)">
    <path id="Subtraction_6" data-name="Subtraction 6" d="M-3930.717-2885.36H-3939a4,4,0,0,1-4-4V-2908a4,4,0,0,1,4-4h18.639a4,4,0,0,1,4,4v18.639a4,4,0,0,1-4,4h-5.791v-8.965h3.245l.66-4.125h-3.9v-3.051a1.792,1.792,0,0,1,1.79-1.789l2.115.055v-3.85l-3.135-.11a5.341,5.341,0,0,0-5.335,5.335v3.41h-3.63v4.125h3.63v8.965Z" transform="translate(3943 2912)" fill="#960000"/>
  </g>
</svg>
